<svg width="100" height="100" viewBox="0 0 100 100" fill="none" xmlns="http://www.w3.org/2000/svg">
<g id="streamline:money-cash-bill-1-billing-bills-payment-finance-cash-currency-money-accounting">
<g id="Group">
<path id="Vector" d="M89.2857 3.57129H10.7143C6.76941 3.57129 3.57144 6.76925 3.57144 10.7141V53.5713C3.57144 57.5162 6.76941 60.7141 10.7143 60.7141H89.2857C93.2306 60.7141 96.4286 57.5162 96.4286 53.5713V10.7141C96.4286 6.76925 93.2306 3.57129 89.2857 3.57129Z" stroke="white" stroke-width="2" stroke-linecap="round" stroke-linejoin="round"/>
<path id="Vector_2" d="M50 42.8573C55.9174 42.8573 60.7143 38.0603 60.7143 32.143C60.7143 26.2257 55.9174 21.4287 50 21.4287C44.0827 21.4287 39.2857 26.2257 39.2857 32.143C39.2857 38.0603 44.0827 42.8573 50 42.8573Z" stroke="white" stroke-width="2" stroke-linecap="round" stroke-linejoin="round"/>
<path id="Vector_3" d="M10.7143 78.5713H89.2857M17.8572 96.4284H82.1429" stroke="white" stroke-width="2" stroke-linecap="round" stroke-linejoin="round"/>
</g>
</g>
</svg>
